<?xml version="1.0" encoding="utf-8" ?>
<svg baseProfile="full" height="200mm" version="1.1" viewBox="0,0,200,200" width="200mm" xmlns="http://www.w3.org/2000/svg" xmlns:ev="http://www.w3.org/2001/xml-events" xmlns:xlink="http://www.w3.org/1999/xlink"><defs /><rect fill="#1a1a1a" height="200" width="200" x="0" y="0" /><text alignment-baseline="middle" fill="#e1ed5e" style="dominant-baseline: central; font-size:9.0px; font-family:Arial;" text-anchor="middle" x="100.0" y="100.0">2022</text><line stroke="#e1ed5e" stroke-width="0.3" x1="100.0" x2="100.0" y1="15.0" y2="10.0" /><path d="M 100.0 14.0 a86.0,86.0 0 0,1 42.46469731375804,11.215312516191453" fill="none" id="id1" stroke="none" /><text fill="#e1ed5e" style="font-size:6.75px; font-family:Arial;" text-anchor="middle"><textPath startOffset="22.20632615414155" xlink:href="#id1">January</textPath></text><line stroke="#e1ed5e" stroke-width="0.3" x1="143.23703022742887" x2="145.7803849466894" y1="26.81831364943548" y2="22.513508569990506" /><path d="M 143.74570117128098 25.957352633546492 a86.0,86.0 0 0,1 28.547481713284135,27.462654790039103" fill="none" id="id2" stroke="none" /><text fill="#e1ed5e" style="font-size:6.75px; font-family:Arial;" text-anchor="middle"><textPath startOffset="19.985693538727396" xlink:href="#id2">February</textPath></text><line stroke="#e1ed5e" stroke-width="0.3" x1="172.23445277983987" x2="176.4835382374775" y1="55.19839476539836" y2="52.563006222186495" /><path d="M 173.08426987136738 54.67131705675599 a86.0,86.0 0 0,1 12.851231095245387,41.99856678651699" fill="none" id="id3" stroke="none" /><text fill="#e1ed5e" style="font-size:6.75px; font-family:Arial;" text-anchor="middle"><textPath startOffset="22.20632615414155" xlink:href="#id3">March</textPath></text><line stroke="#e1ed5e" stroke-width="0.3" x1="184.98032266829074" x2="189.97916517819016" y1="98.17113171792111" y2="98.06355123074" /><path d="M 185.9800911702706 98.14961562048488 a86.0,86.0 0 0,1 -9.607161424134198,41.387399972396054" fill="none" id="id4" stroke="none" /><text fill="#e1ed5e" style="font-size:6.75px; font-family:Arial;" text-anchor="middle"><textPath startOffset="21.466115282336823" xlink:href="#id4">April</textPath></text><line stroke="#e1ed5e" stroke-width="0.3" x1="174.80103733775053" x2="179.2010983576182" y1="140.37084112569926" y2="142.7455964860345" /><path d="M 175.68104954172406 140.8457921977663 a86.0,86.0 0 0,1 -30.038265399797805,32.042727171017184" fill="none" id="id5" stroke="none" /><text fill="#e1ed5e" style="font-size:6.75px; font-family:Arial;" text-anchor="middle"><textPath startOffset="22.206326154141568" xlink:href="#id5">May</textPath></text><path d="M 111.1453310114006 117.79835938074945 l 15.080191530439773 24.08207240455677 a49.414052648171506,49.414052648171506 0 0,0 -0.7247883824417527,0.44522422198970346 l -14.663423948065713 -24.33808509337485" fill="#ffd413" stroke="none" /><line stroke="#e1ed5e" stroke-width="0.3" x1="143.8653032363475" x2="146.44561519142675" y1="172.8068346515853" y2="177.08958963109032" /><path d="M 144.38136562736335 173.6633856474863 a86.0,86.0 0 0,1 -40.68145358897372,12.25698825130547" fill="none" id="id6" stroke="none" /><text fill="#e1ed5e" style="font-size:6.75px; font-family:Arial;" text-anchor="middle"><textPath startOffset="21.466115282336833" xlink:href="#id6">June</textPath></text><path d="M 110.21172684928248 118.3499491758327 l 19.11861746319304 34.35517458895112 a60.31665747162674,60.31665747162674 0 0,0 -0.9115776736107979,0.4970648300032806 l -18.524416977713592 -34.679180070714175" fill="#80ff26" stroke="none" /><path d="M 106.91757812671514 119.82793768551818 l 16.372546590893414 46.9288279237162 a70.70286885245902,70.70286885245902 0 0,0 -1.1525586655412625,0.3910104764884915 l -15.562318192414923 -47.20370138710282" fill="#37ff76" stroke="none" /><path d="M 106.57524785965236 119.94407469862006 l 12.98310881367203 39.38043059777179 a62.46540037831022,62.46540037831022 0 0,0 -1.0240716200285955,0.3278753936172773 l -12.303315848552495 -39.59807883804878" fill="#61ff29" stroke="none" /><path d="M 105.88484417918355 120.15858648285463 l 6.779073338819892 23.22177648434767 a45.19104665825977,45.19104665825977 0 0,0 -0.7485979339590041,0.2115612536794669 l -6.3783442367562815 -23.33502653136566" fill="#ff8b0c" stroke="none" /><line stroke="#e1ed5e" stroke-width="0.3" x1="102.19456741930631" x2="102.32365962044197" y1="184.97166512339345" y2="189.96999836594603" /><path d="M 102.22038585953345 185.97133177190398 a86.0,86.0 0 0,1 -42.740103519485714,-10.115201625700543" fill="none" id="id7" stroke="none" /><text fill="#e1ed5e" style="font-size:6.75px; font-family:Arial;" text-anchor="middle"><textPath startOffset="22.20632615414155" xlink:href="#id7">July</textPath></text><path d="M 99.45781275523022 120.99299961872073 l -0.9487849460611152 36.736094777305844 a57.748344892812106,57.748344892812106 0 0,0 -0.9934905587736468,-0.03421782362193898 l 1.580995856509405 -36.71432015525781" fill="#a5ff21" stroke="none" /><path d="M 98.73552117531835 120.96189622390904 l -1.6880313944244767 27.98333844897314 a49.034205548549814,49.034205548549814 0 0,0 -0.8420743103060702,-0.05807437463434236 l 2.169468465509477 -27.950135729822513" fill="#ffce13" stroke="none" /><path d="M 98.37488393609728 120.93702456842531 l -1.8606285294214076 23.971226485606287 a45.043328341740235,45.043328341740235 0 0,0 -0.7725052690529146,-0.0666550051465357 l 2.2729781162158638 -23.93564722818109" fill="#ff880c" stroke="none" /><path d="M 97.65516085044442 120.86867818915974 l -3.1618736609194884 28.140149364622793 a49.317228877679696,49.317228877679696 0 0,0 -0.8427905245379691,-0.10205019550526387 l 3.645791608508847 -28.08155364039218" fill="#ffd313" stroke="none" /><path d="M 97.2962882734958 120.8252237178851 l -3.3715421608409017 25.969159021467366 a47.18710592686003,47.18710592686003 0 0,0 -0.8045882617641431,-0.111508601655567 l 3.8180590137918755 -25.90727585431919" fill="#ffae10" stroke="none" /><line stroke="#e1ed5e" stroke-width="0.3" x1="58.666819895761336" x2="56.23545636021788" y1="174.27360380694188" y2="178.64263932499728" /><path d="M 58.180547188652646 175.14741091055294 a86.0,86.0 0 0,1 -31.652253787137756,-30.449443065178592" fill="none" id="id8" stroke="none" /><text fill="#e1ed5e" style="font-size:6.75px; font-family:Arial;" text-anchor="middle"><textPath startOffset="22.20632615414155" xlink:href="#id8">August</textPath></text><path d="M 88.24862548938628 117.40417183066458 l -9.394245874933393 13.913186859901547 a37.787752206809586,37.787752206809586 0 0,0 -0.5359438971606867,-0.36862709946448424 l 9.632346656716969 -13.749418971071963" fill="#ff0000" stroke="none" /><path d="M 87.95078237400918 117.19931262002967 l -16.607322315488723 23.705649375072824 a49.94410072509457,49.94410072509457 0 0,0 -0.6998659037408536,-0.4993357397268521 l 17.012915547078464 -23.416269373501752" fill="#ffdd14" stroke="none" /><path d="M 85.97065885151581 115.62618273729859 l -24.127304423904423 26.87351201286442 a57.115266393442624,57.115266393442624 0 0,0 -0.7259090634633549,-0.663100718335998 l 24.586313036834632 -26.454218527941848" fill="#afff20" stroke="none" /><path d="M 84.19399662182784 113.82643327865904 l -31.695471622858964 27.725878145406828 a63.11089218158891,63.11089218158891 0 0,0 -0.7082168795363049,-0.8238162304438594 l 32.16803101196604 -27.176184815801438" fill="#58ff2a" stroke="none" /><path d="M 83.28015986056508 112.70617746262583 l -35.1379537640288 26.70295125288086 a65.1330193883985,65.1330193883985 0 0,0 -0.6706800766129408,-0.8984855635947416 l 35.59239510733683 -26.094152809776812" fill="#3dff2e" stroke="none" /><path d="M 82.85270091963577 112.12312394758628 l -32.846510915724494 23.22245160656611 a61.2265526481715,61.2265526481715 0 0,0 -0.6010088581182821,-0.8657980854781634 l 33.24138068100491 -22.653612258900935" fill="#73ff27" stroke="none" /><path d="M 82.44556493220864 111.52570212397912 l -28.158971337168243 18.488314462784988 a54.68598281841109,54.68598281841109 0 0,0 -0.5098690227281587,-0.7913280459800919 l 28.47304522327345 -18.000864816883446" fill="#d4ff1c" stroke="none" /><line stroke="#e1ed5e" stroke-width="0.3" x1="26.63291911575756" x2="22.317208475507996" y1="142.92168965132927" y2="145.44649492493687" /><path d="M 25.769776987707644 143.4266507060508 a86.0,86.0 0 0,1 -11.730757126820373,-40.83630448921669" fill="none" id="id9" stroke="none" /><text fill="#e1ed5e" style="font-size:6.75px; font-family:Arial;" text-anchor="middle"><textPath startOffset="21.46611528233685" xlink:href="#id9">September</textPath></text><path d="M 81.87401531095188 110.60418214915194 l -54.313667393830464 31.774937037248392 a83.92552017654477,83.92552017654477 0 0,0 -0.7187541559821412,-1.2532084549229847 l 54.85257354596499 -30.835308736467102" fill="#4dd3ff" stroke="none" /><path d="M 81.69416730710424 110.29060199501025 l -29.062384997583994 16.337385032037275 a54.33965163934427,54.33965163934427 0 0,0 -0.4513389118137244,-0.8193112251908804 l 29.339300318849237 -15.834703288448573" fill="#d9ff1c" stroke="none" /><path d="M 81.51974371655577 109.97397251340807 l -47.479460460885505 25.625122634936652 a74.953184110971,74.953184110971 0 0,0 -0.6030072598146129,-1.14066248635007 l 47.913520228925 -24.804045133500455" fill="#3effb5" stroke="none" /><line stroke="#e1ed5e" stroke-width="0.3" x1="15.007084014347285" x2="10.007500721073583" y1="101.09737516637583" y2="101.16192664675087" /><path d="M 14.007167355692545 101.11028546245083 a86.0,86.0 0 0,1 10.666146001902534,-42.60595125391555" fill="none" id="id10" stroke="none" /><text fill="#e1ed5e" style="font-size:6.75px; font-family:Arial;" text-anchor="middle"><textPath startOffset="22.20632615414155" xlink:href="#id10">October</textPath></text><path d="M 79.05617556472873 98.46500227214037 l -59.22143673267869 -4.340409322384935 a80.38028058007566,80.38028058007566 0 0,0 0.11301282261239946,-1.3790426868540544 l 59.13794942624679 5.359165926446767" fill="#47ffff" stroke="none" /><path d="M 79.12142395522702 97.74499172005258 l -62.27782379244176 -6.726369078422935 a83.64001418663304,83.64001418663304 0 0,0 0.16692016520650504,-1.4300700390622851 l 62.15281327423166 7.797382855810081" fill="#4cd6ff" stroke="none" /><line stroke="#e1ed5e" stroke-width="0.3" x1="26.266209847984243" x2="21.928928074336255" y1="57.711370442889674" y2="55.22380399835377" /><path d="M 25.398753493254645 57.213857153982495 a86.0,86.0 0 0,1 29.58750427330803,-30.492523968695096" fill="none" id="id11" stroke="none" /><text fill="#e1ed5e" style="font-size:6.75px; font-family:Arial;" text-anchor="middle"><textPath startOffset="21.46611528233685" xlink:href="#id11">November</textPath></text><path d="M 81.78341655067845 89.55222093294921 l -17.114658181560326 -9.81579053978396 a40.7297052332913,40.7297052332913 0 0,0 0.3540387453339382,-0.605166979121158 l 16.943159761756064 10.10893693125901" fill="#ff3905" stroke="none" /><path d="M 83.6137871275137 86.86637796730984 l -42.274763210494044 -33.883409537560816 a75.17786491172762,75.17786491172762 0 0,0 0.8180121664193819,-1.0027861931828572 l 41.68525255199827 34.60607990035175" fill="#3effb8" stroke="none" /><path d="M 83.84228863543731 86.58626213691792 l -48.47313409368807 -40.241213589246236 a84.0,84.0 0 0,0 0.9331575460515031,-1.1045642014835364 l 47.77326593414944 41.06963674035889" fill="#4dd2ff" stroke="none" /><line stroke="#e1ed5e" stroke-width="0.3" x1="56.762969772571076" x2="54.21961505331055" y1="26.818313649435495" y2="22.513508569990535" /><path d="M 56.25429882871897 25.957352633546506 a86.0,86.0 0 0,1 42.265352541879196,-11.944610805530505" fill="none" id="id12" stroke="none" /><text fill="#e1ed5e" style="font-size:6.75px; font-family:Arial;" text-anchor="middle"><textPath startOffset="22.20632615414155" xlink:href="#id12">December</textPath></text><path d="M 96.04723909329186 79.375362276772 l -7.626853415634879 -39.79524498906104 a61.51950662042875,61.51950662042875 0 0,0 1.041744604836539,-0.19037216786994096 l 6.940713689695447 39.92063263828172" fill="#6fff28" stroke="none" /><path d="M 98.19473922651362 79.07773832637324 l -3.5816385128446298 -41.50978035231766 a62.66401324085751,62.66401324085751 0 0,0 1.075463102187316,-0.08347663526817725 l 2.8665852212949794 41.565282249774306" fill="#5fff29" stroke="none" /><path d="M 98.91598698831166 79.02799685794201 l -2.9799678311147053 -57.6523473828351 a78.72931116015133,78.72931116015133 0 0,0 1.353991070722007,-0.058305703701172475 l 1.987135928003374 57.69510081306047" fill="#44ffe9" stroke="none" /><path d="M 99.27714615592234 79.0124445844662 l -1.2597243673804555 -36.575215287718756 a57.59690258511979,57.59690258511979 0 0,0 0.9911422137875004,-0.025598279227770776 l 0.629955518398076 36.591480359088884" fill="#a7ff21" stroke="none" /></svg>