<?xml version="1.0" encoding="utf-8" ?>
<svg baseProfile="full" height="200mm" version="1.1" viewBox="0,0,200,200" width="200mm" xmlns="http://www.w3.org/2000/svg" xmlns:ev="http://www.w3.org/2001/xml-events" xmlns:xlink="http://www.w3.org/1999/xlink"><defs /><rect fill="#1a1a1a" height="200" width="200" x="0" y="0" /><text alignment-baseline="middle" fill="#e1ed5e" style="dominant-baseline: central; font-size:9.0px; font-family:Arial;" text-anchor="middle" x="100.0" y="100.0">2024</text><line stroke="#e1ed5e" stroke-width="0.3" x1="100.0" x2="100.0" y1="15.0" y2="10.0" /><path d="M 100.0 14.0 a86.0,86.0 0 0,1 42.35913384403234,11.155469271406648" fill="none" id="id25" stroke="none" /><text fill="#e1ed5e" style="font-size:6.75px; font-family:Arial;" text-anchor="middle"><textPath startOffset="22.145653131862478" xlink:href="#id25">January</textPath></text><path d="M 100.36049292484886 79.00309439819443 l 0.46667685817158017 -27.1815873825658 a48.185593242120234,48.185593242120234 0 0,0 0.8269260122887139,0.021298680768053174 l -0.9332161845310355 27.169570984447706" fill="#ffba11" stroke="none" /><path d="M 103.58742460773223 79.30868818359171 l 4.655356744884903 -26.85086059158318 a48.25144144684424,48.25144144684424 0 0,0 0.8149100160614641,0.1485037510073008 l -5.115601494497421 26.766988666644515" fill="#ffbb11" stroke="none" /><path d="M 104.29559338865022 79.4440306129975 l 5.563739791497108 -26.624508998790414 a48.1996264660778,48.1996264660778 0 0,0 0.8084628545843653,0.17620071630001005 l -6.019965062700607 26.525076824356685" fill="#ffba11" stroke="none" /><path d="M 105.3480935250658 79.69241777938227 l 6.941667137822405 -26.358640792048256 a48.257378580057065,48.257378580057065 0 0,0 0.7992768482037911,0.21784645920421303 l -7.3931253869608895 26.2355938386999" fill="#ffbb11" stroke="none" /><path d="M 106.04205211174951 79.88797359093562 l 7.881849033999629 -26.236112001715078 a48.39447238333491,48.39447238333491 0 0,0 0.7935757086874562,0.24585178310243672 l -8.331065375558715 26.096943630805995" fill="#ffbd11" stroke="none" /><path d="M 106.72888874123014 80.10723608172694 l 8.724213545351493 -25.791587155674996 a48.227153174609974,48.227153174609974 0 0,0 0.7819555850788318,0.27200474355978493 l -9.165674902475343 25.63802397954662" fill="#ffba11" stroke="none" /><path d="M 107.40779381753099 80.34994680014964 l 9.655460737004255 -25.612256742647425 a48.371803329249595,48.371803329249595 0 0,0 0.7744734282143678,0.299582959617477 l -10.093706427712148 25.44273389489191" fill="#ffbd11" stroke="none" /><path d="M 108.07796709384702 80.6158196554323 l 7.594284254827325 -18.223517609475362 a40.742587150775776,40.742587150775776 0 0,0 0.6432768021909131,0.274576615252186 l -7.905996132188667 18.090466344563776" fill="#ff3204" stroke="none" /><path d="M 108.73861861582097 80.90454125486305 l 11.324275865331417 -24.74558647215558 a48.213659690035385,48.213659690035385 0 0,0 0.7496335254454775,0.3508663411241461 l -11.7473981046484 24.547543899460898" fill="#ffba11" stroke="none" /><path d="M 109.3889696526874 81.21577127319529 l 12.14172034838805 -24.291574112792997 a48.1569870548221,48.1569870548221 0 0,0 0.7362808394092833,0.3759502428110646 l -12.556928409510913 24.079565918309097" fill="#ffb911" stroke="none" /><path d="M 109.71004243097381 81.37971332152246 l 12.551937083500972 -24.069994392554033 a48.146192267162434,48.146192267162434 0 0,0 0.729555088414369,0.388446992226876 l -12.963280987701902 23.850976932604585" fill="#ffb911" stroke="none" /><line stroke="#e1ed5e" stroke-width="0.3" x1="143.13028292997686" x2="145.6673583964461" y1="26.7553504044142" y2="22.446841604673864" /><path d="M 143.63769802327073 25.89364864446614 a86.0,86.0 0 0,1 29.32050498858742,28.57503671076993" fill="none" id="id26" stroke="none" /><text fill="#e1ed5e" style="font-size:6.75px; font-family:Arial;" text-anchor="middle"><textPath startOffset="20.669276256404974" xlink:href="#id26">February</textPath></text><path d="M 111.27062007382361 82.28071324371311 l 14.588376691941543 -22.935351224695168 a48.181815066439356,48.181815066439356 0 0,0 0.6940805391206524,0.4498946198148333 l -14.979942863319202 22.68154276317644" fill="#ffba11" stroke="none" /><path d="M 112.7482090630111 83.31218511350987 l 16.47340388083778 -21.56421448338539 a48.13647695826872,48.13647695826872 0 0,0 0.6523410782199459,0.5072643680735667 l -16.84115490369295 21.27824906369103" fill="#ffb911" stroke="none" /><path d="M 113.31354834802062 83.75963576809568 l 14.983174049196272 -18.277036109997038 a44.633568362704864,44.633568362704864 0 0,0 0.5883674895588789,0.49083708580491925 l -15.294715872917044 18.017136840280248" fill="#ff7a0b" stroke="none" /><path d="M 113.86319453409587 84.22622945171908 l 13.956666549879678 -15.880124543821621 a42.14159163146938,42.14159163146938 0 0,0 0.5392818807953897,0.48222918318433067 l -14.227213457498443 15.638199830753903" fill="#ff4c07" stroke="none" /><path d="M 114.91283532996326 85.21462403516908 l 23.38592397785469 -23.18604548678993 a53.931658713364115,53.931658713364115 0 0,0 0.6461865318148685,0.6630443075684597 l -23.780497310820373 22.781178487153728" fill="#e4ff1a" stroke="none" /><path d="M 115.41159269507618 85.73525988315684 l 21.26182657471803 -19.679629256919117 a49.971590860413116,49.971590860413116 0 0,0 0.5772963254916782,0.6345497891465645 l -21.596520601051584 19.311741892214883" fill="#ffd814" stroke="none" /><path d="M 115.6541949942343 86.00192230759917 l 25.1314988971717 -22.472741282363366 a54.713741079307425,54.713741079307425 0 0,0 0.6200602393480739,0.7055147294899086 l -25.513570200478362 22.03801427506216" fill="#d8ff1c" stroke="none" /><path d="M 116.1254893667686 86.54754324733833 l 23.54147652618139 -19.639136999767043 a51.65773669285403,51.65773669285403 0 0,0 0.5622161920040595,0.6858123391708393 l -23.87513953742408 19.232122378897706" fill="#fff517" stroke="none" /><path d="M 116.57777611688842 87.10902102172516 l 23.57287245016453 -18.330408196492282 a50.861081363570165,50.861081363570165 0 0,0 0.530040337430431,0.6938398162198466 l -23.88406476494927 17.92304746703155" fill="#ffe715" stroke="none" /><path d="M 116.7966241395341 87.39550010848427 l 19.411171949230525 -14.566505310575808 a45.268841616476614,45.268841616476614 0 0,0 0.46109113321638134,0.625558677324195 l -19.658365102030732 14.23114032398274" fill="#ff860c" stroke="none" /><path d="M 117.01052211995028 87.68569379921539 l 24.318941829805123 -17.605038461462858 a51.02246343908227,51.02246343908227 0 0,0 0.5075153451538755,0.7138838908468615 l -24.61757227348896 17.184977343906493" fill="#ffea16" stroke="none" /><path d="M 117.42321728460499 88.27688183743584 l 27.422949549137037 -18.451384304013025 a54.05256033515246,54.05256033515246 0 0,0 0.5113772739218007,0.7742903702907586 l -27.73565126197956 17.977914055383206" fill="#e2ff1b" stroke="none" /><path d="M 117.62189284568427 88.57770195909679 l 25.457938237444218 -16.50152799142746 a51.338210978127705,51.338210978127705 0 0,0 0.4730016937069156,0.7436372260003681 l -25.737457622777026 16.062077090748417" fill="#ffef16" stroke="none" /><line stroke="#e1ed5e" stroke-width="0.3" x1="172.87174338648825" x2="177.1583165268699" y1="56.24261187166439" y2="53.66864786411523" /><path d="M 173.72905801456457 55.72781907015455 a86.0,86.0 0 0,1 12.242430191666344,42.057860355516425" fill="none" id="id27" stroke="none" /><text fill="#e1ed5e" style="font-size:6.75px; font-family:Arial;" text-anchor="middle"><textPath startOffset="22.145653131862474" xlink:href="#id27">March</textPath></text><path d="M 118.00360718960297 89.18935116829356 l 28.669606527935922 -17.21527497532281 a54.441172690900686,54.441172690900686 0 0,0 0.47422484459671777,0.8053374615789065 l -28.960905082662407 16.720586345450346" fill="#dcff1b" stroke="none" /><path d="M 118.18653347947321 89.5 l 27.034166796230725 -15.608183477121056 a52.216366954242105,52.216366954242105 0 0,0 0.44151831289875204,0.7801205534244569 l -27.29811847415085 15.14180615359748" fill="#fffe18" stroke="none" /><path d="M 118.70294669586156 90.45014215332178 l 27.184591936748433 -13.880646340790081 a51.5233415864911,51.5233415864911 0 0,0 0.3954541270729503,0.7911731583636585 l -27.41886597703312 13.411941326262673" fill="#fff216" stroke="none" /><path d="M 118.8641267826498 90.77261029715802 l 26.33087730726967 -12.879751548073862 a50.31216641107579,50.31216641107579 0 0,0 0.3728388890731432,0.779089881471518 l -26.548095454302725 12.42584916453724" fill="#ffde14" stroke="none" /><path d="M 119.0197475246899 91.09779779509293 l 27.40503754996806 -12.826941334851632 a51.25832954944613,51.25832954944613 0 0,0 0.36616884466649013,0.800145008551384 l -27.621190859489605 12.354607344085563" fill="#ffee16" stroke="none" /><path d="M 119.31412917781788 91.75594674310238 l 25.11632702760057 -10.720666498958858 a48.308653821440515,48.308653821440515 0 0,0 0.3190077033460789,0.7655023573538469 l -25.29666057548313 10.287931632163733" fill="#ffbc11" stroke="none" /><path d="M 119.58574465831526 92.42381321644754 l 36.249643821438994 -14.022140961174637 a59.86717270803527,59.86717270803527 0 0,0 0.3625365435830299,0.9616712537864248 l -36.48501104883646 13.397801427194056" fill="#89ff24" stroke="none" /><path d="M 119.83427380445688 93.10060997987247 l 43.71907393771649 -15.207763358964993 a67.28858922406039,67.28858922406039 0 0,0 0.3701339532003638,1.094235264143457 l -43.97369331248922 14.455026420347373" fill="#31ff3e" stroke="none" /><path d="M 120.05942366710727 93.78553927170692 l 31.330873339019092 -9.70638464891333 a53.79996230391611,53.79996230391611 0 0,0 0.26573000351563364,0.8845287577037533 l -31.492879662538353 9.167118287618854" fill="#e6ff1a" stroke="none" /><path d="M 120.16314734710363 94.1308016681162 l 26.4131823373417 -7.688492428556159 a48.509436871910424,48.509436871910424 0 0,0 0.22587266123563196,0.8015423909752344 l -26.54127349065191 7.233942113677911" fill="#ffbf11" stroke="none" /><path d="M 120.35273937422433 94.82641323984039 l 31.063982462726386 -7.896342867266562 a53.05188351910078,53.05188351910078 0 0,0 0.21678634989255444,0.884562286084902 l -31.19495633913523 7.361924756573566" fill="#f2ff19" stroke="none" /><path d="M 120.43855184770803 95.1765574152323 l 31.68506974113599 -7.47759018493614 a53.555460363424515,53.555460363424515 0 0,0 0.20348304958477087,0.8965838616128294 l -31.808763652278426 6.932571989384284" fill="#eaff1a" stroke="none" /><path d="M 120.592083275326 95.88100663000786 l 25.957848487144076 -5.192296689374872 a47.47205777781586,47.47205777781586 0 0,0 0.1529814363247843,0.8004635186530898 l -26.04315621575102 4.745930605688468" fill="#ffad10" stroke="none" /><path d="M 120.7213421655516 96.59031103205396 l 31.636159985215336 -5.205718086596409 a53.06159882799448,53.06159882799448 0 0,0 0.14017992036833857,0.9000556470544963 l -31.72086139772194 4.661874257610472" fill="#f2ff19" stroke="none" /><path d="M 120.82617615685814 97.30363454192243 l 30.82951368445982 -3.991497774819936 a52.086829502326026,52.086829502326026 0 0,0 0.10719448116376822,0.8877240775187907 l -30.89349025188325 3.4616800203777323" fill="#fffc17" stroke="none" /><path d="M 120.9064616781168 98.02013634271609 l 29.241785539862313 -2.7692274931947596 a50.37261722196996,50.37261722196996 0 0,0 0.07413500540783255,0.8615611378444695 l -29.285014167967887 2.266845307974628" fill="#ffdf14" stroke="none" /><path d="M 120.96210409425399 98.7389718711861 l 28.11816555466659 -1.6915190162041254 a49.16899839791644,49.16899839791644 0 0,0 0.04345230753703114,0.8429631578411553 l -28.143059451660196 1.2085840649862394" fill="#ffcb12" stroke="none" /><path d="M 120.98066250479742 99.09900007780936 l 33.0577144400187 -1.4196404966452654 a54.08818313442937,54.08818313442937 0 0,0 0.03187419981239825,0.927982549735406 l -33.07721332682795 0.8519516823457394" fill="#e2ff1b" stroke="none" /><line stroke="#e1ed5e" stroke-width="0.3" x1="184.99686870605535" x2="189.99668451229388" y1="99.2704041080226" y2="99.22748670261217" /><path d="M 185.99683186730306 99.26182062694052 a86.0,86.0 0 0,1 -10.086455211305974,41.156179273409016" fill="none" id="id28" stroke="none" /><text fill="#e1ed5e" style="font-size:6.75px; font-family:Arial;" text-anchor="middle"><textPath startOffset="21.40746469413373" xlink:href="#id28">April</textPath></text><path d="M 120.99922638620191 99.81974689727618 l 29.98627568151072 -0.25739611218611164 a50.98738037918834,50.98738037918834 0 0,0 0.0,0.8752984298198734 l -29.98627568151072 -0.257396112186108" fill="#ffea15" stroke="none" /><path d="M 120.99303781780057 100.54070618675476 l 30.50243089834657 0.7856344203701016 a51.51254679883142,51.51254679883142 0 0,0 -0.030356375725007986,0.8837927575222397 l -30.484449835624716 -1.309133442456452" fill="#fff216" stroke="none" /><path d="M 120.98066250479742 100.90099992219065 l 24.07285801956341 1.0337921024931178 a45.09504553515588,45.09504553515588 0 0,0 -0.03985201754837964,0.7731184938865163 l -24.051564412558456 -1.4468823897563647" fill="#ff830c" stroke="none" /><path d="M 120.93736805541906 101.62068470465957 l 27.594210887634283 2.1359664406894985 a48.67675608063536,48.67675608063536 0 0,0 -0.0716391518703884,0.8325555364853909 l -27.553478113066156 -2.609343024550547" fill="#ffc212" stroke="none" /><path d="M 120.9064616781168 101.97986365728391 l 29.408896809669322 2.7850531041904123 a50.54047617007788,50.54047617007788 0 0,0 -0.08921021592676932,0.8630279141074857 l -29.356754201260888 -3.2894855405808294" fill="#ffe215" stroke="none" /><path d="M 120.86939407059847 102.33845913500097 l 32.09230528613839 3.5960097454548903 a53.29314702329447,53.29314702329447 0 0,0 -0.10967707766684777,0.9082835379184532 l -32.02584612221188 -4.146386960296752" fill="#efff19" stroke="none" /><path d="M 120.77682067341334 103.0534771498775 l 29.475377707317225 4.331865482598657 a50.79199472254825,50.79199472254825 0 0,0 -0.13418400373942702,0.8615575611165277 l -29.39667221143953 -4.837211225646635" fill="#ffe615" stroke="none" /><path d="M 120.7213421655516 103.40968896794604 l 28.22127399105352 4.643799895773597 a49.600789904303355,49.600789904303355 0 0,0 -0.14546065232313635,0.8389783879357482 l -28.137398521238147 -5.1275713166299335" fill="#ffd213" stroke="none" /><path d="M 120.592083275326 104.11899336999214 l 29.853166451205983 5.971469376929389 a51.444539636575485,51.444539636575485 0 0,0 -0.18064943420894253,0.8644729385211042 l -29.746259306172675 -6.483058766735902" fill="#fff116" stroke="none" /><path d="M 120.51834098615036 104.47187691870673 l 27.698521035671874 6.036763741539373 a49.348731612449996,49.348731612449996 0 0,0 -0.18749965612283107,0.8261580808855082 l -27.59081051799138 -6.511356156363897" fill="#ffce13" stroke="none" /><path d="M 120.35273937422433 105.17358676015961 l 28.70216983947417 7.295979334232264 a50.614960204929616,50.614960204929616 0 0,0 -0.2212850369267859,0.8402553284682476 l -28.572695321742653 -7.787615167073315" fill="#ffe315" stroke="none" /><path d="M 120.16314734710363 105.8691983318838 l 28.90017146850051 8.412418718868526 a51.09964617084893,51.09964617084893 0 0,0 -0.25239254035013736,0.8401326806006386 l -28.751502608146744 -8.907289003059889" fill="#ffeb16" stroke="none" /><path d="M 120.05942366710727 106.21446072829308 l 25.84732604868164 8.007567681234503 a48.05929422650206,48.05929422650206 0 0,0 -0.2509044943841471,0.7859547550627484 l -25.70605683852024 -8.450091469988635" fill="#ffb711" stroke="none" /><path d="M 119.94978838288452 106.5578916946017 l 26.47979202361074 8.70443359366145 a48.87376095542439,48.87376095542439 0 0,0 -0.26883961394946937,0.7947765489727421 l -26.32646698808891 -9.157711817108353" fill="#ffc612" stroke="none" /><path d="M 119.71291397450082 107.23885506374661 l 50.73276480457282 18.62977395825353 a75.04518389691836,75.04518389691836 0 0,0 -0.45444974853288855,1.2054819498615754 l -50.40548437222549 -19.497924188309263" fill="#3effb5" stroke="none" /><path d="M 119.58574465831526 107.57618678355244 l 23.396074153796217 9.050104087604854 a46.085467302930866,46.085467302930866 0 0,0 -0.2917458613360465,0.7353901530690325 l -23.237269617494047 -9.45039525788745" fill="#ff950d" stroke="none" /><path d="M 119.31412917781788 108.2440532568976 l 49.71688474968928 21.221181750933386 a75.056518423961,75.056518423961 0 0,0 -0.5159818187709211,1.1806673783810693 l -49.34526904890139 -22.071511199090303" fill="#3effb5" stroke="none" /><path d="M 119.0197475246899 108.90220220490707 l 42.91603167173697 20.086869779846225 a68.38426017151718,68.38426017151718 0 0,0 -0.5067623481787591,1.058938403014508 l -42.56489006559829 -20.820620684925835" fill="#33ff50" stroke="none" /><path d="M 118.8641267826498 109.22738970284198 l 24.377927948175582 11.924466153000548 a48.138096176417676,48.138096176417676 0 0,0 -0.36947154854937986,0.7391905962771664 l -24.16963648641447 -12.34118860544146" fill="#ffb911" stroke="none" /><path d="M 118.70294669586154 109.54985784667822 l 24.099934869657705 12.305598463281774 a48.05983396588505,48.05983396588505 0 0,0 -0.3814850727865096,0.7315479277604273 l -23.885141727896247 -12.717492634146705" fill="#ffb811" stroke="none" /><line stroke="#e1ed5e" stroke-width="0.3" x1="174.33088141563837" x2="178.70328620479359" y1="141.23008692659167" y2="143.65538615756765" /><path d="M 175.20536237346943 141.71514677278685 a86.0,86.0 0 0,1 -30.301960400862466,31.631185727798858" fill="none" id="id29" stroke="none" /><text fill="#e1ed5e" style="font-size:6.75px; font-family:Arial;" text-anchor="middle"><textPath startOffset="22.145653131862474" xlink:href="#id29">May</textPath></text><path d="M 118.36410011445183 110.18625677009912 l 55.092300343355504 30.558770310297355 a84.0,84.0 0 0,0 -0.7102665399144867,1.254972919603509 l -54.559600438419636 -31.499999999999986" fill="#4dd2ff" stroke="none" /><path d="M 118.18653347947321 110.5 l 40.74196082531749 23.52238204981023 a68.04476409962048,68.04476409962048 0 0,0 -0.5927226781828052,1.0065726891089586 l -40.33216443700492 -24.218305907212738" fill="#32ff4b" stroke="none" /><path d="M 117.423217284605 111.72311816256416 l 25.470948551640575 17.137990917860744 a51.69983636472674,51.69983636472674 0 0,0 -0.5017598693380871,0.7320826446396352 l -25.17299894548717 -17.572708297570422" fill="#fff517" stroke="none" /><path d="M 117.21940702142032 112.02048342749411 l 27.005685677554585 18.852065970177875 a53.93489714966202,53.93489714966202 0 0,0 -0.5364850322335171,0.754633383697684 l -26.678085546791106 -19.312876580585062" fill="#e4ff1a" stroke="none" /><path d="M 117.01052211995028 112.31430620078461 l 34.46509606258751 24.950071676894485 a63.54819529998373,63.54819529998373 0 0,0 -0.6472776492266185,0.8781564444478315 l -34.03171639377707 -25.538034430611194" fill="#55ff2b" stroke="none" /><path d="M 116.57777611688842 112.89097897827486 l 29.908681096056018 23.257171321333498 a58.88700598853696,58.88700598853696 0 0,0 -0.6273809542212909,0.792675340739811 l -29.505033711193164 -23.767166605987992" fill="#98ff23" stroke="none" /><path d="M 116.1254893667686 113.45245675266167 l 41.50770011262243 34.62719970646061 a75.05489920581206,75.05489920581206 0 0,0 -0.8338436200067385,0.9822656876979782 l -40.907161929108575 -35.334632176608146" fill="#3effb5" stroke="none" /><path d="M 115.89218393027572 113.72728997021213 l 31.11599289663067 26.87725356547011 a62.116806456311096,62.116806456311096 0 0,0 -0.7039577466108544,0.8009746919019638 l -30.65002408606123 -27.407440535183365" fill="#69ff28" stroke="none" /><path d="M 115.41159269507618 114.26474011684316 l 39.67564500680099 36.72318469530798 a75.06245555717382,75.06245555717382 0 0,0 -0.883392761732703,0.9381324999293765 l -39.03939641133203 -37.398858655181854" fill="#3effb5" stroke="none" /><path d="M 114.65682725009322 115.03919595460226 l 35.49756659622012 36.42363049265678 a71.86018179793186,71.86018179793186 0 0,0 -0.8908182139391595,0.8533836978304739 l -34.86707589641565 -37.02762632079283" fill="#39ff86" stroke="none" /><path d="M 114.39649973595853 115.28858382429668 l 18.554874594365543 19.70463381989449 a48.06577109909787,48.06577109909787 0 0,0 -0.6055605738885156,0.5604978266967723 l -18.213884249163062 -20.020249392723642" fill="#ffb811" stroke="none" /><path d="M 113.86319453409587 115.77377054828091 l 17.88213490270134 20.346586941046088 a48.08790041380019,48.08790041380019 0 0,0 -0.6247317146669029,0.5396283757125879 l -17.53022370827158 -20.65055944922339" fill="#ffb811" stroke="none" /><path d="M 113.03279911837588 116.46651593811092 l 16.821726795722817 21.253702283936992 a48.10517207405567,48.10517207405567 0 0,0 -0.6519168373279648,0.5069344757899671 l -16.45440001375962 -21.53933781134775" fill="#ffb811" stroke="none" /><path d="M 112.45986205192187 116.90419585922612 l 16.049879620594584 21.774744173968145 a48.05065839637433,48.05065839637433 0 0,0 -0.6681764150368976,0.48370819619091965 l -15.67372219518372 -22.047053141532142" fill="#ffb711" stroke="none" /><path d="M 112.16784306229584 117.11559508785304 l 31.549472095744523 44.378283551299845 a75.4499884341561,75.4499884341561 0 0,0 -1.0620660453342712,0.7414045838491283 l -30.783010959236492 -44.91333295095409" fill="#3fffbb" stroke="none" /><path d="M 111.27062007382361 117.71928675628689 l 23.44435358330663 36.85841783658494 a64.68272748301536,64.68272748301536 0 0,0 -0.9420142053345454,0.5878865351981453 l -22.80817524918237 -37.25544016862463" fill="#46ff2d" stroke="none" /><path d="M 110.96478420261333 117.91015095944535 l 14.482217610619061 23.655614086039698 a48.73666715214654,48.73666715214654 0 0,0 -0.7172813033948409,0.43070681352281653 l -14.074003550666784 -23.90073490009844" fill="#ffc312" stroke="none" /><line stroke="#e1ed5e" stroke-width="0.3" x1="143.1302829299769" x2="145.66735839644613" y1="173.24464959558577" y2="177.55315839532614" /><path d="M 143.63769802327073 174.10635135553383 a86.0,86.0 0 0,1 -40.68552437913181,11.842963189579606" fill="none" id="id30" stroke="none" /><text fill="#e1ed5e" style="font-size:6.75px; font-family:Arial;" text-anchor="middle"><textPath startOffset="21.407464694133747" xlink:href="#id30">June</textPath></text><path d="M 110.65571695917076 118.09573695890943 l 18.778301337932607 31.889661000606154 a58.00777053365661,58.00777053365661 0 0,0 -0.8624029944396773,0.4979086009896889 l -18.228105875632533 -32.20731649887201" fill="#a5ff21" stroke="none" /><line stroke="#e1ed5e" stroke-width="0.3" x1="101.45913802915013" x2="101.54496967792366" y1="184.9874750549273" y2="189.98673829345242" /><path d="M 101.47630435890484 185.9873277026323 a86.0,86.0 0 0,1 -42.54439059252881,-10.42667462771756" fill="none" id="id31" stroke="none" /><text fill="#e1ed5e" style="font-size:6.75px; font-family:Arial;" text-anchor="middle"><textPath startOffset="22.145653131862474" xlink:href="#id31">July</textPath></text><path d="M 91.59046798132341 119.24265499422711 l -7.43027035475558 17.00191266682347 a39.55462076882877,39.55462076882877 0 0,0 -0.6198521690547467,-0.2772519910168926 l 7.721035926665961 -16.871856924896722" fill="#ff1b02" stroke="none" /><line stroke="#e1ed5e" stroke-width="0.3" x1="58.13341422392154" x2="55.67067388415222" y1="173.97424548756322" y2="178.32567169271397" /><path d="M 57.64086615596768 174.84453072859336 a86.0,86.0 0 0,1 -31.369924170532247,-30.572349798747897" fill="none" id="id32" stroke="none" /><text fill="#e1ed5e" style="font-size:6.75px; font-family:Arial;" text-anchor="middle"><textPath startOffset="22.145653131862474" xlink:href="#id32">August</textPath></text><path d="M 83.8745106332314 113.45245675266167 l -13.209519900044949 11.019851313472916 a38.202573614454735,38.202573614454735 0 0,0 -0.41577712918352483,-0.5071804931883452 l 13.396743848467104 -10.791468538586075" fill="#ff0000" stroke="none" /><path d="M 83.20337586046588 112.60449989151573 l -18.06036781638776 13.552836706430446 a43.57999708712079,43.57999708712079 0 0,0 -0.4438892077846519,-0.6022209617506217 l 18.290359043756244 -13.240809435410945" fill="#ff6709" stroke="none" /><path d="M 82.78059297857968 112.02048342749411 l -17.877657701488328 12.479993524505657 a42.80277237562434,42.80277237562434 0 0,0 -0.4154116334718921,-0.6060979879625635 l 18.089259071775544 -12.171260801473043" fill="#ff5908" stroke="none" /><path d="M 81.99639281039703 110.81064883170644 l -19.766749276289854 11.86936499557507 a44.056586962295356,44.056586962295356 0 0,0 -0.3837670474932302,-0.6517203461338229 l 19.967590033912852 -11.528293481147688" fill="#ff700a" stroke="none" /><line stroke="#e1ed5e" stroke-width="0.3" x1="26.387840678322732" x2="22.057713659400548" y1="142.50000000000003" y2="145.00000000000006" /><path d="M 25.521815274538298 143.00000000000003 a86.0,86.0 0 0,1 -11.493303480769221,-40.785679425670985" fill="none" id="id33" stroke="none" /><text fill="#e1ed5e" style="font-size:6.75px; font-family:Arial;" text-anchor="middle"><textPath startOffset="21.40746469413373" xlink:href="#id33">September</textPath></text><path d="M 81.4637452351635 109.86951160357371 l -21.720781523052672 11.565092733140846 a45.607797948990346,45.607797948990346 0 0,0 -0.3620215195198833,-0.6942239980059768 l 21.916111111547504 -11.190522492030366" fill="#ff8c0c" stroke="none" /><path d="M 81.29705330413844 109.54985784667822 l -16.151547055360506 8.2470950107962 a39.13524326825048,39.13524326825048 0 0,0 -0.30037247173601894,-0.6009461550139391 l 16.290739440308265 -7.968616999618508" fill="#ff1202" stroke="none" /><path d="M 80.83023694016515 108.57439118712176 l -24.675344368187467 11.036967678180796 a48.03122777858691,48.03122777858691 0 0,0 -0.3301943760168268,-0.7555493509763395 l 24.86117262622126 -10.611756257428606" fill="#ffb711" stroke="none" /><line stroke="#e1ed5e" stroke-width="0.3" x1="15.003131293944662" x2="10.003315487706104" y1="100.72959589197737" y2="100.7725132973878" /><path d="M 14.003168132696942 100.73817937305945 a86.0,86.0 0 0,1 10.791469493833604,-42.45332614584628" fill="none" id="id34" stroke="none" /><text fill="#e1ed5e" style="font-size:6.75px; font-family:Arial;" text-anchor="middle"><textPath startOffset="22.145653131862435" xlink:href="#id34">October</textPath></text><line stroke="#e1ed5e" stroke-width="0.3" x1="26.387840678322718" x2="22.05771365940052" y1="57.49999999999999" y2="54.99999999999999" /><path d="M 25.521815274538284 56.99999999999999 a86.0,86.0 0 0,1 29.574782752854787,-30.34633250058573" fill="none" id="id35" stroke="none" /><text fill="#e1ed5e" style="font-size:6.75px; font-family:Arial;" text-anchor="middle"><textPath startOffset="21.40746469413373" xlink:href="#id35">November</textPath></text><line stroke="#e1ed5e" stroke-width="0.3" x1="56.869717070023135" x2="54.33264160355391" y1="26.7553504044142" y2="22.446841604673864" /><path d="M 56.362301976729285 25.89364864446614 a86.0,86.0 0 0,1 42.16139366436587,-11.88097634709845" fill="none" id="id36" stroke="none" /><text fill="#e1ed5e" style="font-size:6.75px; font-family:Arial;" text-anchor="middle"><textPath startOffset="22.145653131862474" xlink:href="#id36">December</textPath></text></svg>