<?xml version="1.0" encoding="utf-8" ?>
<svg baseProfile="full" height="200mm" version="1.1" viewBox="0,0,200,200" width="200mm" xmlns="http://www.w3.org/2000/svg" xmlns:ev="http://www.w3.org/2001/xml-events" xmlns:xlink="http://www.w3.org/1999/xlink"><defs /><rect fill="#1a1a1a" height="200" width="200" x="0" y="0" /><text alignment-baseline="middle" fill="#e1ed5e" style="dominant-baseline: central; font-size:9.0px; font-family:Arial;" text-anchor="middle" x="100.0" y="100.0">2023</text><line stroke="#e1ed5e" stroke-width="0.3" x1="100.0" x2="100.0" y1="15.0" y2="10.0" /><path d="M 100.0 14.0 a86.0,86.0 0 0,1 42.46469731375804,11.215312516191453" fill="none" id="id13" stroke="none" /><text fill="#e1ed5e" style="font-size:6.75px; font-family:Arial;" text-anchor="middle"><textPath startOffset="22.20632615414155" xlink:href="#id13">January</textPath></text><path d="M 100.36148047927253 79.00311137660856 l 0.7147636949723448 -41.517632502814415 a62.52378469959599,62.52378469959599 0 0,0 1.0759252598687927,0.027787975173699204 l -1.4293155900360053 41.49917773549836" fill="#5cff2a" stroke="none" /><path d="M 100.72285384407766 79.0124445844662 l 0.8141722757461881 -23.638922162498147 a44.652938876580215,44.652938876580215 0 0,0 0.7679437255255127,0.03306927223366623 l -1.2209568336610324 23.621405163740285" fill="#ff8c0c" stroke="none" /><path d="M 101.44485096284872 79.0497635885617 l 2.510082540697693 -36.39601868427897 a57.48247100221556,57.48247100221556 0 0,0 0.9865355470901536,0.0765741454783891 l -3.136208277150188 36.347419276612115" fill="#a3ff22" stroke="none" /><path d="M 102.16513564639614 79.11191278185805 l 5.050196060919288 -48.72162904194261 a69.98266649289717,69.98266649289717 0 0,0 1.1971478086391878,0.13451350507479648 l -5.888110573068201 48.62747958339722" fill="#36ff6f" stroke="none" /><path d="M 102.52436894288641 79.15227682838746 l 5.482022637210504 -45.27376661130977 a66.60445718754073,66.60445718754073 0 0,0 1.1369865198791942,0.14761348201193397 l -6.260523885597544 45.1726948061337" fill="#30ff3a" stroke="none" /><path d="M 110.36928655335952 81.73862282372117 l 18.08802868341797 -31.854873762383257 a57.632086537208394,57.632086537208394 0 0,0 0.8584526182704642,0.49727116578471703 l -18.63367803415376 31.53879843920849" fill="#a1ff22" stroke="none" /><line stroke="#e1ed5e" stroke-width="0.3" x1="143.23703022742887" x2="145.7803849466894" y1="26.81831364943548" y2="22.513508569990506" /><path d="M 143.74570117128098 25.957352633546492 a86.0,86.0 0 0,1 28.547481713284135,27.462654790039103" fill="none" id="id14" stroke="none" /><text fill="#e1ed5e" style="font-size:6.75px; font-family:Arial;" text-anchor="middle"><textPath startOffset="19.985693538727396" xlink:href="#id14">February</textPath></text><path d="M 110.99172775467656 82.1063720568725 l 14.20439313255847 -23.12358271098716 a48.137886094096174,48.137886094096174 0 0,0 0.7023107783103156,0.439786944947805 l -14.60032306324105 22.875651424716413" fill="#ffc812" stroke="none" /><path d="M 113.6212207817346 84.01681056812373 l 16.852111153526216 -19.774327808784236 a46.98110256744429,46.98110256744429 0 0,0 0.6109919265514983,0.5298461778910366 l -17.18999687872448 19.481316637473526" fill="#ffb510" stroke="none" /><path d="M 115.4437574822437 85.77008943001954 l 34.61376845318723 -31.893198928121656 a68.06685781311091,68.06685781311091 0 0,0 0.7865169481731163,0.8684916585877613 l -35.15762904197638 31.292654482264343" fill="#33ff51" stroke="none" /><path d="M 115.9244219780498 86.31012108654704 l 22.87834220583367 -19.668012752369908 a51.17033754724358,51.17033754724358 0 0,0 0.5684522216215993,0.6728681313394765 l -23.213505040942387 19.271285671401326" fill="#fffa17" stroke="none" /><path d="M 116.15771136456269 86.58626213691792 l 17.56016617608345 -14.578021639546645 a43.822755115339504,43.822755115339504 0 0,0 0.4768364583438735,0.5845451161521034 l -17.80850112650373 14.273592353786439" fill="#ff7e0b" stroke="none" /><path d="M 117.04232023915458 87.72973835380427 l 32.30259673984767 -23.257473647211707 a60.80411833702594,60.80411833702594 0 0,0 0.6042405790899347,0.854655447799035 l -32.698149938741494 22.69799169908088" fill="#73ff27" stroke="none" /><path d="M 117.45458315368197 88.32363383020206 l 29.690762325277856 -19.861844291437855 a56.721621269386155,56.721621269386155 0 0,0 0.5358933575142716,0.8162023490242025 l -30.028252318150052 19.347823878435978" fill="#aeff20" stroke="none" /><line stroke="#e1ed5e" stroke-width="0.3" x1="172.23445277983987" x2="176.4835382374775" y1="55.19839476539836" y2="52.563006222186495" /><path d="M 173.08426987136738 54.67131705675599 a86.0,86.0 0 0,1 12.851231095245387,41.99856678651699" fill="none" id="id15" stroke="none" /><text fill="#e1ed5e" style="font-size:6.75px; font-family:Arial;" text-anchor="middle"><textPath startOffset="22.20632615414155" xlink:href="#id15">March</textPath></text><path d="M 119.04729006885535 91.15688171328212 l 41.82311261306855 -19.4172887911668 a67.1107780529128,67.1107780529128 0 0,0 0.4774378451377256,1.051971004976382 l -42.15115277516962 18.694495777348354" fill="#31ff42" stroke="none" /><path d="M 119.196687751892 91.48605970444005 l 25.859945718685402 -11.46916784504185 a49.28919588166298,49.28919588166298 0 0,0 0.3373007310751833,0.7785365922183859 l -26.05353715960327 11.022332108236862" fill="#ffdb14" stroke="none" /><path d="M 119.47837535516314 92.15188598940014 l 29.316143802060328 -11.811890607638553 a52.606281767235764,52.606281767235764 0 0,0 0.3311852269699651,0.8428302785390108 l -29.515122578911992 11.305511324203756" fill="#edff1a" stroke="none" /><path d="M 119.61058180528143 92.48833698450437 l 35.12252730728257 -13.453378997343 a58.61097354359442,58.61097354359442 0 0,0 0.3527694342553796,0.9452466978762524 l -35.348901330039574 12.846809162437413" fill="#93ff23" stroke="none" /><path d="M 119.85752413597 93.16781622104841 l 43.66688449709653 -15.024037130490036 a67.1791997914766,67.1791997914766 0 0,0 0.36680708811131657,1.0967065053654217 l -43.919028878979624 14.2701575222023" fill="#31ff43" stroke="none" /><path d="M 120.08093135843002 93.85539295169968 l 44.19305363772127 -13.52272681088864 a67.21569138537728,67.21569138537728 0 0,0 0.3290179379036447,1.1092849230326758 l -44.41927747273662 12.760012501109435" fill="#31ff44" stroke="none" /><path d="M 120.45610955862082 95.25157060432595 l 18.48772332671045 -4.291512452652289 a39.979277987749256,39.979277987749256 0 0,0 0.1498377895829405,0.6716934304623109 l -18.55885550329543 3.9726408526400143" fill="#ff3805" stroke="none" /><line stroke="#e1ed5e" stroke-width="0.3" x1="184.98032266829074" x2="189.97916517819016" y1="98.17113171792111" y2="98.06355123074" /><path d="M 185.9800911702706 98.14961562048488 a86.0,86.0 0 0,1 -9.607161424134198,41.387399972396054" fill="none" id="id16" stroke="none" /><text fill="#e1ed5e" style="font-size:6.75px; font-family:Arial;" text-anchor="middle"><textPath startOffset="21.466115282336823" xlink:href="#id16">April</textPath></text><path d="M 120.41448212921028 104.9243191809786 l 21.6117344370618 5.21311673492626 a43.231591294148316,43.231591294148316 0 0,0 -0.18072593241173188,0.7219102631146532 l -21.518797190355006 -5.584354837438309" fill="#ff730a" stroke="none" /><path d="M 120.32669344350535 105.2749913415812 l 15.53178726173229 4.030662613800419 a37.046266127981234,37.046266127981234 0 0,0 -0.16549435665811332,0.6158660665366583 l -15.4601048287324 -4.297419613512625" fill="#ff0000" stroke="none" /><path d="M 120.13307415673323 105.97154293290107 l 44.287690299332894 13.135889827984665 a67.19470871888441,67.19470871888441 0 0,0 -0.3384476767479386,1.1060665900637838 l -44.055015850078824 -13.896283390600505" fill="#31ff44" stroke="none" /><path d="M 120.02730092923936 106.31721596034902 l 42.65948213052105 13.45608988087376 a65.7313958034667,65.7313958034667 0 0,0 -0.34965267917930354,1.0761202944393706 l -42.4215372003255 -14.188409075290926" fill="#32ff2f" stroke="none" /><path d="M 119.67450827220406 107.3425965602758 l 43.266140286165424 16.147077652275115 a67.18102437117165,67.18102437117165 0 0,0 -0.4136614644743109,1.0799395516055124 l -42.98178454209761 -16.889440770713772" fill="#31ff43" stroke="none" /><path d="M 119.54520255179757 107.68017299344265 l 43.06754263140346 16.923138910178462 a67.27316564577089,67.27316564577089 0 0,0 -0.4327823242558592,1.074130236582957 l -42.76985769289021 -17.661968514604233" fill="#32ff45" stroke="none" /><path d="M 119.26925614724726 108.34839909993367 l 42.452802304683 18.392663102395247 a67.26586732699074,67.26586732699074 0 0,0 -0.4694482166692322,1.0584817978793457 l -42.129913003282496 -19.12069323676728" fill="#32ff45" stroke="none" /><line stroke="#e1ed5e" stroke-width="0.3" x1="174.80103733775053" x2="179.2010983576182" y1="140.37084112569926" y2="142.7455964860345" /><path d="M 175.68104954172406 140.8457921977663 a86.0,86.0 0 0,1 -30.038265399797805,32.042727171017184" fill="none" id="id17" stroke="none" /><text fill="#e1ed5e" style="font-size:6.75px; font-family:Arial;" text-anchor="middle"><textPath startOffset="22.206326154141568" xlink:href="#id17">May</textPath></text><path d="M 118.12598468904814 110.60418214915192 l 23.573465556107312 13.791103045273962 a48.311221165124465,48.311221165124465 0 0,0 -0.42610295610255355,0.7141730638241223 l -23.332581724306532 -14.194838202984188" fill="#ffcb12" stroke="none" /><line stroke="#e1ed5e" stroke-width="0.3" x1="143.8653032363475" x2="146.44561519142675" y1="172.8068346515853" y2="177.08958963109032" /><path d="M 144.38136562736335 173.6633856474863 a86.0,86.0 0 0,1 -40.68145358897372,12.25698825130547" fill="none" id="id18" stroke="none" /><text fill="#e1ed5e" style="font-size:6.75px; font-family:Arial;" text-anchor="middle"><textPath startOffset="21.466115282336833" xlink:href="#id18">June</textPath></text><line stroke="#e1ed5e" stroke-width="0.3" x1="102.19456741930631" x2="102.32365962044197" y1="184.97166512339345" y2="189.96999836594603" /><path d="M 102.22038585953345 185.97133177190398 a86.0,86.0 0 0,1 -42.740103519485714,-10.115201625700543" fill="none" id="id19" stroke="none" /><text fill="#e1ed5e" style="font-size:6.75px; font-family:Arial;" text-anchor="middle"><textPath startOffset="22.20632615414155" xlink:href="#id19">July</textPath></text><path d="M 92.40401165467489 119.57807347666478 l -9.96200061501455 25.6762874228695 a48.54111820669881,48.54111820669881 0 0,0 -0.7763780262376652,-0.30893683925635385 l 10.402499717294072 -25.501003739207082" fill="#ffcf13" stroke="none" /><path d="M 91.40352486487194 119.15986991738527 l -9.904674987352456 22.07559276896877 a45.19575133585299,45.19575133585299 0 0,0 -0.7070595604364339,-0.32457636511488863 l 10.283202543556309 -21.90182933351981" fill="#ff960d" stroke="none" /><path d="M 90.10565033884886 118.52300852407294 l -10.622918351174647 19.88694698570479 a43.546331291541776,43.546331291541776 0 0,0 -0.6581243894641028,-0.3588618910270254 l 10.963665552507392 -19.701144442917997" fill="#ff790b" stroke="none" /><line stroke="#e1ed5e" stroke-width="0.3" x1="58.666819895761336" x2="56.23545636021788" y1="174.27360380694188" y2="178.64263932499728" /><path d="M 58.180547188652646 175.14741091055294 a86.0,86.0 0 0,1 -31.652253787137756,-30.449443065178592" fill="none" id="id20" stroke="none" /><text fill="#e1ed5e" style="font-size:6.75px; font-family:Arial;" text-anchor="middle"><textPath startOffset="22.20632615414155" xlink:href="#id20">August</textPath></text><path d="M 89.7882731507175 118.34994917583269 l -8.775723555867168 15.769524940106974 a39.046917763586606,39.046917763586606 0 0,0 -0.5844974641385555,-0.3318929145846435 l 9.04586978692693 -15.616128859727699" fill="#ff2603" stroke="none" /><path d="M 89.4739219176387 118.17145234162733 l -12.785487778914007 22.071932206955125 a46.50762413658282,46.50762413658282 0 0,0 -0.689269851116213,-0.4072327774028821 l 13.163525501058603 -21.848580857258494" fill="#ffac10" stroke="none" /><path d="M 88.24862548938628 117.40417183066458 l -21.06711724790373 31.201092963900912 a58.64746513749511,58.64746513749511 0 0,0 -0.8317973202629513,-0.5721177816097619 l 21.601071452789572 -30.83383439292605" fill="#92ff23" stroke="none" /><path d="M 87.36589467227662 116.77436683061367 l -27.74464678380539 36.8367106862818 a67.11625179199791,67.11625179199791 0 0,0 -0.9168440233486542,-0.702996900868954 l 28.37461953564753 -36.353674443585476" fill="#31ff42" stroke="none" /><path d="M 87.07902340077011 116.55440617244103 l -19.158902353921295 24.54646124843639 a52.1382770754594,52.1382770754594 0 0,0 -0.7027308889921485,-0.5582919188797418 l 19.5785907356308 -24.213035415551516" fill="#f5ff19" stroke="none" /><path d="M 85.97065885151581 115.62618273729859 l -22.781299916989905 25.37430316423319 a55.10048221034798,55.10048221034798 0 0,0 -0.7003020726921636,-0.639709339402406 l 23.214701539148923 -24.97840105824421" fill="#c6ff1e" stroke="none" /><path d="M 85.44109423537348 115.13401014063109 l -20.887434852808152 21.71252812434692 a51.12837221425779,51.12837221425779 0 0,0 -0.629000828404839,-0.6156096977196014 l 21.258085633588784 -21.34976832370475" fill="#fff917" stroke="none" /><path d="M 84.9287848128048 114.62390073753433 l -23.800721772662563 23.09431511407306 a54.163560536947735,54.163560536947735 0 0,0 -0.6434977860932236,-0.6747048560484984 l 24.194726110134745 -22.681203141442058" fill="#d5ff1c" stroke="none" /><path d="M 83.95833913139862 113.55231037782056 l -30.166183327648824 25.48498454862152 a60.49029062947999,60.49029062947999 0 0,0 -0.6651166701880696,-0.8011758758336571 l 30.60039599773043 -24.9619474156741" fill="#78ff26" stroke="none" /><path d="M 83.50135304334701 112.99209946851258 l -22.27915817370875 17.54404708628721 a49.357617620226776,49.357617620226776 0 0,0 -0.5198842159976909,-0.6720204302745859 l 22.57784920692451 -17.157948661899372" fill="#ffdc14" stroke="none" /><path d="M 83.28015986056508 112.70617746262583 l -23.995683515633697 18.235426328481132 a51.13840740258048,51.13840740258048 0 0,0 -0.5265764019030804,-0.7054351422349251 l 24.306021184231863 -17.819678306736897" fill="#fff917" stroke="none" /><path d="M 82.24976979558568 111.22182372390057 l -40.98538101545792 25.911253866329513 a69.48911768539034,69.48911768539034 0 0,0 -0.630482575111508,-1.0165386611020388 l 41.425328230237376 -25.201918873862212" fill="#35ff67" stroke="none" /><path d="M 82.05923443525364 110.91462005526583 l -39.10508586148763 23.790353475516206 a66.77323080933141,66.77323080933141 0 0,0 -0.5889371113002003,-0.9870924741384884 l 39.50880384848607 -23.113698907491607" fill="#31ff3d" stroke="none" /><line stroke="#e1ed5e" stroke-width="0.3" x1="26.63291911575756" x2="22.317208475507996" y1="142.92168965132927" y2="145.44649492493687" /><path d="M 25.769776987707644 143.4266507060508 a86.0,86.0 0 0,1 -11.730757126820373,-40.83630448921669" fill="none" id="id21" stroke="none" /><text fill="#e1ed5e" style="font-size:6.75px; font-family:Arial;" text-anchor="middle"><textPath startOffset="21.46611528233685" xlink:href="#id21">September</textPath></text><path d="M 81.87401531095188 110.60418214915194 l -39.97181609911209 23.384573363536674 a67.30965723967157,67.30965723967157 0 0,0 -0.5764527378201248,-1.005093937735273 l 40.36842083308459 -22.693059579943093" fill="#32ff45" stroke="none" /><path d="M 81.69416730710424 110.29060199501025 l -36.92499342267413 20.7573409719065 a63.3594421999218,63.3594421999218 0 0,0 -0.5262562573171173,-0.9553079684935413 l 37.27682608944276 -20.11866248501514" fill="#51ff2b" stroke="none" /><path d="M 81.51974371655577 109.97397251340807 l -27.026341175805506 14.58637693606887 a51.711325426821325,51.711325426821325 0 0,0 -0.4160237489156255,-0.7869601503051006 l 27.27341743294602 -14.119001770677643" fill="#fbff18" stroke="none" /><path d="M 81.35079622478065 109.6543875284942 l -36.91114835566244 19.108297310838683 a62.56392545288675,62.56392545288675 0 0,0 -0.48687047242398085,-0.9606416315062152 l 37.23459749787269 -18.47010146762978" fill="#5bff2a" stroke="none" /><path d="M 81.18737489456691 109.33194174019688 l -31.993476476058426 15.870260363329738 a56.7134106607585,56.7134106607585 0 0,0 -0.42628700852727663,-0.8782774996073724 l 32.26191674120042 -15.317193907757082" fill="#aeff20" stroke="none" /><path d="M 81.02952815118164 109.00673069616217 l -42.650802797336866 20.249590934379455 a68.2137364785612,68.2137364785612 0 0,0 -0.4944696272493367,-1.0650435870119268 l 42.993047041426024 -19.5124272800887" fill="#33ff54" stroke="none" /><path d="M 80.87730276802145 108.67885076344099 l -39.28049072144199 17.827480754965197 a64.13671315000651,64.13671315000651 0 0,0 -0.4476098622936196,-1.009242073919545 l 39.58154166846689 -17.148690344552957" fill="#46ff2c" stroke="none" /><path d="M 80.73074385275274 108.34839909993369 l -48.602992361324276 21.057230989237155 a73.96846083670013,73.96846083670013 0 0,0 -0.4961135776935481,-1.1726659480858355 l 48.95825692021013 -20.21749051548516" fill="#3dffa9" stroke="none" /><path d="M 80.58989483394504 108.01547362559985 l -39.32361329419058 16.238829337931662 a63.544637038967814,63.544637038967814 0 0,0 -0.40879592104417706,-1.0145979509221617 l 39.59731182949214 -15.559532019166696" fill="#4eff2b" stroke="none" /><path d="M 80.32549172779594 107.34259656027581 l -38.8148244565621 14.485830730779158 a62.42981884530171,62.42981884530171 0 0,0 -0.36707466748731415,-1.0100318326285849 l 39.05842338505464 -13.815551101144456" fill="#5dff2a" stroke="none" /><path d="M 80.20201598880116 107.00284435728193 l -36.279532627846095 12.832615694811516 a59.482210347973414,59.482210347973414 0 0,0 -0.33312634917548817,-0.968221103691505 l 36.49504980796481 -12.206221888030715" fill="#86ff25" stroke="none" /><path d="M 80.0844068197444 106.66101706037122 l -40.13659512686207 13.42418186922462 a63.322038316173604,63.322038316173604 0 0,0 -0.3368363029220269,-1.036675544226103 l 40.361723680800345 -12.731307425020715" fill="#51ff2b" stroke="none" /><path d="M 79.86692584326677 105.97154293290107 l -33.474657769696805 9.928705098871493 a55.916069334028414,55.916069334028414 0 0,0 -0.2657540683772931,-0.925124775679756 l 33.640604474960206 -9.35102284768714" fill="#baff1f" stroke="none" /><path d="M 79.76711848015287 105.62410040840567 l -40.594091842070426 11.283872160467766 a63.13319431773751,63.13319431773751 0 0,0 -0.28203078122073727,-1.0495414549482243 l 40.782310699632944 -10.583439772344002" fill="#54ff2b" stroke="none" /><path d="M 79.58551787078972 104.9243191809786 l -40.19841137628545 9.696538316878106 a62.35136191841522,62.35136191841522 0 0,0 -0.24269357317478069,-1.0455175613560252 l 40.359365515390785 -9.003152098173507" fill="#5eff29" stroke="none" /><path d="M 79.4281124754447 104.21870165774334 l -45.115340632286376 9.251857034892884 a67.05421608236674,67.05421608236674 0 0,0 -0.22214125271973326,-1.132693461782799 l 45.267911817981776 -8.47389984604213" fill="#31ff41" stroke="none" /><path d="M 79.35854240842038 103.8639653848113 l -41.224628778734534 7.7170198807910735 a62.940701159911384,62.940701159911384 0 0,0 -0.19018149572677756,-1.0666388265960347 l 41.3513567168005 -7.006262303461825" fill="#56ff2a" stroke="none" /><path d="M 79.18660465613746 102.79330883721812 l -30.171692481400125 4.049260288854059 a51.442199921803734,51.442199921803734 0 0,0 -0.11022958845252741,-0.8786382758261265 l 30.2369235790995 -3.529304258740524" fill="#fffe18" stroke="none" /><path d="M 79.1416061653843 102.43462659150553 l -40.900357205484546 4.773958054684617 a62.17802684738694,62.17802684738694 0 0,0 -0.1149337094962556,-1.0641434069951254 l 40.97647321648185 -4.06921832580471" fill="#61ff29" stroke="none" /><path d="M 79.10278846688536 102.07522291339032 l -38.81585097186598 3.8546551156796416 a60.00677701029584,60.00677701029584 0 0,0 -0.09322596790821028,-1.0287407874725014 l 38.87645153605126 -3.185932939658574" fill="#7fff26" stroke="none" /><path d="M 79.04373962182676 101.35467743843564 l -45.952830220629586 2.9705329676561725 a67.04874234328165,67.04874234328165 0 0,0 -0.06453808338854264,-1.152370833134672 l 45.99715465490566 -2.179090418186063" fill="#31ff41" stroke="none" /><path d="M 79.0235259727143 100.99374915477108 l -42.13337908360841 1.9960461323252794 a63.18063338980843,63.18063338980843 0 0,0 -0.042114005360358156,-1.0867753489745713 l 42.16149522181997 -1.2704935363367114" fill="#53ff2b" stroke="none" /><line stroke="#e1ed5e" stroke-width="0.3" x1="15.007084014347285" x2="10.007500721073583" y1="101.09737516637583" y2="101.16192664675087" /><path d="M 14.007167355692545 101.11028546245083 a86.0,86.0 0 0,1 10.666146001902534,-42.60595125391555" fill="none" id="id22" stroke="none" /><text fill="#e1ed5e" style="font-size:6.75px; font-family:Arial;" text-anchor="middle"><textPath startOffset="22.20632615414155" xlink:href="#id22">October</textPath></text><path d="M 79.00175016825051 100.2711162175752 l -46.01480152321734 0.5941142257763602 a67.01863677831358,67.01863677831358 0 0,0 -0.004964813089992166,-1.1536477132890917 l 46.01821063359684 0.19804296571640687" fill="#31ff41" stroke="none" /><path d="M 79.00486145842228 99.54816195383935 l -45.48171417152414 -0.9788155875514527 a66.49224553629611,66.49224553629611 0 0,0 0.03447561360616489,-1.1440777750957594 l 45.458126863462326 1.7615635100722065" fill="#30ff39" stroke="none" /><path d="M 79.01574976396665 99.18683210126434 l -45.80362540116841 -1.7749520427461194 a66.83800338850514,66.83800338850514 0 0,0 0.054445574802595396,-1.1492600323372806 l 45.76628621813232 2.563123181706409" fill="#31ff3e" stroke="none" /><path d="M 79.03285615573316 98.82574320788736 l -45.739871205686796 -2.561643819137607 a66.81154698292715,66.81154698292715 0 0,0 0.07419075189155919,-1.1476980941583337 l 45.68899986279082 3.3486009775489527" fill="#31ff3e" stroke="none" /><path d="M 79.12142395522702 97.74499172005258 l -45.68815467775773 -4.934587822125708 a66.95386419913984,66.95386419913984 0 0,0 0.13361965779198082,-1.1447716278118107 l 45.59644466696216 5.72030318826238" fill="#31ff40" stroke="none" /><path d="M 79.26566170972629 96.67025291283419 l -45.326584000385076 -7.279039192548366 a66.90733741691648,66.90733741691648 0 0,0 0.19240045510694836,-1.135558377206533 l 45.1945716837579 8.058183358070726" fill="#31ff3f" stroke="none" /><path d="M 79.32604984820605 96.31383870115002 l -45.48556433544481 -8.110067291379183 a67.20291932751206,67.20291932751206 0 0,0 0.21285493001016353,-1.1370795474085342 l 45.33922368152479 8.89182491625029" fill="#31ff44" stroke="none" /><path d="M 79.3925641242962 95.95851677861259 l -45.068862430624996 -8.838802285690363 a66.92740779356185,66.92740779356185 0 0,0 0.23144359412155913,-1.1286011604561654 l 44.91003954058844 9.613279102309932" fill="#31ff3f" stroke="none" /><path d="M 79.54389044137918 95.25157060432595 l -44.43398644774319 -10.31435849572519 a66.61540466571094,66.61540466571094 0 0,0 0.26889530061928435,-1.114744618976969 l 44.249858346863086 11.077688346361555" fill="#30ff3a" stroke="none" /><path d="M 79.71946130924805 94.55025226153421 l -44.255256048271505 -11.892188133753642 a66.82523133063992,66.82523133063992 0 0,0 0.30807459298901235,-1.1083082247083915 l 44.04399468471613 12.652207661880977" fill="#31ff3e" stroke="none" /><path d="M 79.81627453868168 94.20196356495316 l -44.039610539996254 -12.650948259553537 a66.82066988140232,66.82066988140232 0 0,0 0.327084324516835,-1.102765739943079 l 43.81532031836771 13.407143386243156" fill="#31ff3e" stroke="none" /><path d="M 80.02781315780177 93.51064311812611 l -29.53270323362193 -9.595756963605002 a52.05252182979278,52.05252182979278 0 0,0 0.2842134770956159,-0.8497621211417118 l 29.363152462754545 10.102692187669035" fill="#f6ff19" stroke="none" /><path d="M 80.14247586403 93.16781622104843 l -43.45208265905595 -14.95013236655765 a66.9520396194448,66.9520396194448 0 0,0 0.38432676712493535,-1.0865435246612556 l 43.1883028111212 15.695873517645516" fill="#31ff40" stroke="none" /><path d="M 80.38941819471856 92.48833698450439 l -42.52665287614747 -16.28946498142883 a66.539684608367,66.539684608367 0 0,0 0.4189035949554323,-1.0660639571622443 l 42.239955731310346 17.019077943486835" fill="#30ff39" stroke="none" /><path d="M 80.65960295795068 91.81776055985345 l -42.41293030464617 -17.94341400315381 a67.05239150267171,67.05239150267171 0 0,0 0.45885959934283893,-1.0591112199500214 l 42.09777999546065 18.67082436769043" fill="#31ff41" stroke="none" /><path d="M 80.95270993114464 91.15688171328213 l -41.61542028033114 -19.320863112815587 a66.88179330118598,66.88179330118598 0 0,0 0.49378447773897705,-1.0400360408602156 l 41.27667760875042 20.034341569316332" fill="#31ff3f" stroke="none" /><path d="M 81.10775173730289 90.83032412892265 l -41.16998347459382 -19.982555746159807 a66.76319562100873,66.76319562100873 0 0,0 0.5107066133213148,-1.0295533687158 l 40.819916848319096 20.68826870337457" fill="#31ff3d" stroke="none" /><path d="M 81.43458229118936 90.18545643968196 l -40.56260275551559 -21.443278999047543 a66.88179330118598,66.88179330118598 0 0,0 0.5468124866456142,-1.013160491330195 l 40.18748216965151 22.13832047371021" fill="#31ff3f" stroke="none" /><path d="M 81.6062741919709 89.86733742301443 l -40.34809465878717 -22.226798043455812 a67.06516356053694,67.06516356053694 0 0,0 0.5657181552486877,-1.0063494736593328 l 39.95951886224605 22.91803102704993" fill="#31ff42" stroke="none" /><line stroke="#e1ed5e" stroke-width="0.3" x1="26.266209847984243" x2="21.928928074336255" y1="57.711370442889674" y2="55.22380399835377" /><path d="M 25.398753493254645 57.213857153982495 a86.0,86.0 0 0,1 29.58750427330803,-30.492523968695096" fill="none" id="id23" stroke="none" /><text fill="#e1ed5e" style="font-size:6.75px; font-family:Arial;" text-anchor="middle"><textPath startOffset="21.46611528233685" xlink:href="#id23">November</textPath></text><path d="M 81.96595687620814 89.24020034530311 l -54.1021293713756 -32.27939896409068 a84.0,84.0 0 0,0 0.7515368068551322,-1.2353289071717022 l 53.53847676623425 33.20589564446946" fill="#4dd2ff" stroke="none" /><path d="M 82.34701348167596 88.62581576622439 l -37.405711387018286 -24.101273304080937 a65.4978496025023,65.4978496025023 0 0,0 0.6188092256170172,-0.9424889046754161 l 36.98530552604335 24.74158027273402" fill="#35ff2f" stroke="none" /><path d="M 82.54541684631803 88.32363383020206 l -38.18336979394453 -25.54303379149159 a66.93926756157957,66.93926756157957 0 0,0 0.6489141505519864,-0.9522014441345517 l 37.738031177723805 26.19651325889656" fill="#31ff40" stroke="none" /><path d="M 83.17141714833178 87.43820079747576 l -36.80224426573605 -27.47126164712064 a66.9246709240193,66.9246709240193 0 0,0 0.697049320174621,-0.9172351981469122 l 36.32391900533732 28.10068162114858" fill="#31ff3f" stroke="none" /><path d="M 83.6137871275137 86.86637796730984 l -35.83554203978595 -28.72234531246603 a66.92558321386682,66.92558321386682 0 0,0 0.7282188896683542,-0.8927102531626522 l 35.335824658041204 29.334939735236762" fill="#31ff3f" stroke="none" /><path d="M 83.84228863543731 86.58626213691792 l -35.33161308203062 -29.33144338755968 a66.9201094747817,66.9201094747817 0 0,0 0.7434167278450623,-0.8799709200619414 l 34.821485740698435 29.93527325725074" fill="#31ff3f" stroke="none" /><path d="M 84.31358615837235 86.03803664274999 l -34.30035858658006 -30.529626118589963 a66.91919718493418,66.91919718493418 0 0,0 0.7732556553234828,-0.8538482078029564 l 33.76975929064053 31.115527113662473" fill="#31ff3f" stroke="none" /><path d="M 85.05521093208273 85.24692304244772 l -33.276648146144495 -32.84977451059311 a67.7594161344976,67.7594161344976 0 0,0 0.8265493626296964,-0.8229998969900422 l 32.706262983347486 33.41771025823326" fill="#32ff4d" stroke="none" /><path d="M 86.10567301691215 84.25364557470407 l -30.73061277044912 -34.826812481022934 a67.44650071679916,67.44650071679916 0 0,0 0.8771456002539375,-0.7606520210039356 l 30.12657337154841 35.35062949544655" fill="#32ff48" stroke="none" /><path d="M 86.65592168130627 83.78471172551755 l -29.158251676961452 -35.43215538981678 a66.88726704027107,66.88726704027107 0 0,0 0.8953230211585191,-0.7239556175675832 l 28.544025257238435 35.928817104648495" fill="#31ff3f" stroke="none" /><path d="M 87.22198572758235 83.33499621200491 l -28.51475029955907 -37.188753402916376 a67.86250488726705,67.86250488726705 0 0,0 0.9331218715137343,-0.7028080479789746 l 27.870382274286946 37.674078040401206" fill="#33ff4e" stroke="none" /><path d="M 87.80319425747018 82.90503203632743 l -26.73823398867382 -37.47614441769012 a67.03688257526392,67.03688257526392 0 0,0 0.9451206395201128,-0.6621174066649278 l 26.089182209570048 37.93084666711899" fill="#31ff41" stroke="none" /><path d="M 88.70189139769569 82.29822771554957 l -24.70771045831701 -38.71181271120529 a66.9246709240193,66.9246709240193 0 0,0 0.9764017811861803,-0.6114227058035172 l 24.037689524758587 39.13137975833174" fill="#31ff3f" stroke="none" /><line stroke="#e1ed5e" stroke-width="0.3" x1="56.762969772571076" x2="54.21961505331055" y1="26.818313649435495" y2="22.513508569990535" /><path d="M 56.25429882871897 25.957352633546506 a86.0,86.0 0 0,1 42.265352541879196,-11.944610805530505" fill="none" id="id24" stroke="none" /><text fill="#e1ed5e" style="font-size:6.75px; font-family:Arial;" text-anchor="middle"><textPath startOffset="22.20632615414155" xlink:href="#id24">December</textPath></text><path d="M 89.63071344664047 81.73862282372117 l -23.166136651445335 -40.797942744884274 a67.91632998827055,67.91632998827055 0 0,0 1.0215777429489765,-0.5685069079123548 l 22.46043481942431 41.19066505035681" fill="#33ff4f" stroke="none" /><path d="M 90.58718382345135 81.22770947309562 l -20.58069586713989 -41.04476224940693 a66.91554802554413,66.91554802554413 0 0,0 1.0340960960968013,-0.5074264633246615 l 19.87112850403266 41.392943872866425" fill="#31ff3f" stroke="none" /><path d="M 91.23893434514133 80.91482961587045 l -19.825912117261534 -43.18891396149671 a68.52209044702204,68.52209044702204 0 0,0 1.0761814623554706,-0.4828512522222301 l 19.07954853643929 43.523785544235466" fill="#34ff58" stroke="none" /><path d="M 91.90106846888425 80.62456947434976 l -14.433401459705534 -34.52966186427515 a58.4248664147009,58.4248664147009 0 0,0 0.931225962197356,-0.3798704516717218 l 13.836891627919798 34.77299320213045" fill="#95ff23" stroke="none" /><path d="M 92.57280143429618 80.3572730644239 l -17.35400646667447 -45.89617569094926 a70.06750944871628,70.06750944871628 0 0,0 1.1318160759096214,-0.41685741254629727 l 16.56140806499228 46.18809637130188" fill="#36ff70" stroke="none" /><path d="M 94.63758080256005 79.69619591428918 l -7.151755913002585 -27.07879514450334 a49.007298318780144,49.007298318780144 0 0,0 0.817467666220536,-0.20839070979646548 l 6.684579358097049 27.19788885046867" fill="#ffd714" stroke="none" /><path d="M 98.19473922651362 79.07773832637324 l -3.151187416458415 -36.52102160423984 a57.65671836309136,57.65671836309136 0 0,0 0.9895260451062374,-0.07680626568005515 l 2.5220711819898436 36.569853132108356" fill="#a0ff22" stroke="none" /><path d="M 99.27714615592234 79.0124445844662 l -1.360732558824156 -39.5079174275994 a60.53134367261827,60.53134367261827 0 0,0 1.041638825673773,-0.026902457733276656 l 0.6804670979555038 39.52548667747504" fill="#77ff27" stroke="none" /></svg>